<svg width="1357" height="1488" viewBox="0 0 1357 1488" fill="none" xmlns="http://www.w3.org/2000/svg">
<line x1="149" y1="297" x2="1357" y2="297" stroke="#E5E5E5" stroke-width="8"/>
<line x1="1353" y1="1357" x2="1353" y2="301" stroke="#E5E5E5" stroke-width="8"/>
<g filter="url(#filter0_f_31_2)">
<rect x="1097" y="351" width="200" height="200" rx="5" fill="#D9D9D9"/>
<rect x="1099.5" y="353.5" width="195" height="195" rx="2.5" stroke="#C9C0B9" stroke-width="5"/>
</g>
<g filter="url(#filter1_f_31_2)">
<rect x="47" y="354" width="200" height="200" rx="5" fill="#D9D9D9"/>
<rect x="49.5" y="356.5" width="195" height="195" rx="2.5" stroke="#C9C0B9" stroke-width="5"/>
</g>
<rect x="582.5" y="353.5" width="195" height="195" rx="2.5" fill="#D9D9D9" stroke="#C9C0B9" stroke-width="5"/>
<rect x="580.5" y="844.5" width="195" height="195" rx="2.5" fill="#D9D9D9" stroke="#C9C0B9" stroke-width="5"/>
<g filter="url(#filter2_f_31_2)">
<rect x="839" y="1079" width="200" height="200" rx="5" fill="#D9D9D9"/>
<rect x="841.5" y="1081.5" width="195" height="195" rx="2.5" stroke="#C9C0B9" stroke-width="5"/>
</g>
<g filter="url(#filter3_f_31_2)">
<rect x="1097" y="840" width="200" height="200" rx="5" fill="#D9D9D9"/>
<rect x="1099.5" y="842.5" width="195" height="195" rx="2.5" stroke="#65605C" stroke-width="5"/>
</g>
<g filter="url(#filter4_f_31_2)">
<rect x="838" y="590" width="200" height="200" rx="5" fill="#D9D9D9"/>
<rect x="840.5" y="592.5" width="195" height="195" rx="2.5" stroke="#C9C0B9" stroke-width="5"/>
</g>
<g filter="url(#filter5_f_31_2)">
<rect x="322" y="590" width="200" height="200" rx="5" fill="#D9D9D9"/>
<rect x="324.5" y="592.5" width="195" height="195" rx="2.5" stroke="#C9C0B9" stroke-width="5"/>
</g>
<g filter="url(#filter6_f_31_2)">
<rect x="839" y="351" width="200" height="200" rx="5" fill="#F5F5EA"/>
<rect x="841.5" y="353.5" width="195" height="195" rx="2.5" stroke="#F1E3E3" stroke-width="5"/>
</g>
<g filter="url(#filter7_f_31_2)">
<rect x="47" y="602" width="200" height="200" rx="5" fill="#F5F5EA"/>
<rect x="49.5" y="604.5" width="195" height="195" rx="2.5" stroke="#F1E3E3" stroke-width="5"/>
</g>
<g filter="url(#filter8_f_31_2)">
<rect x="321" y="351" width="200" height="200" rx="5" fill="#F5F5EA"/>
<rect x="323.5" y="353.5" width="195" height="195" rx="2.5" stroke="#F1E3E3" stroke-width="5"/>
</g>
<rect x="582.5" y="592.5" width="195" height="195" rx="2.5" fill="#F5F5EA" stroke="#F1E3E3" stroke-width="5"/>
<g filter="url(#filter9_f_31_2)">
<rect x="838" y="840" width="200" height="200" rx="5" fill="#F5F5EA"/>
<rect x="840.5" y="842.5" width="195" height="195" rx="2.5" stroke="#F1E3E3" stroke-width="5"/>
</g>
<g filter="url(#filter10_f_31_2)">
<rect x="318" y="840" width="200" height="200" rx="5" fill="#F5F5EA"/>
<rect x="320.5" y="842.5" width="195" height="195" rx="2.5" stroke="#F1E3E3" stroke-width="5"/>
</g>
<g filter="url(#filter11_f_31_2)">
<rect x="1097" y="590" width="200" height="200" rx="5" fill="#F5F5EA"/>
<rect x="1099.5" y="592.5" width="195" height="195" rx="2.5" stroke="#F1E3E3" stroke-width="5"/>
</g>
<g filter="url(#filter12_d_31_2)">
<path d="M1168.4 724.187H1113V764M1168.4 724.187L1172.38 712.84L1176.12 701.294L1159.29 670.837L1142.45 640.181L1148.06 636.399C1161.62 627.64 1178.45 623.858 1204.17 623.659C1227.08 623.659 1229.65 624.057 1243.91 630.029C1252.32 633.413 1260.51 637.195 1262.14 638.191C1264.71 639.584 1261.91 646.352 1248.35 670.24L1231.29 700.498M1168.4 724.187L1171.44 716.224C1173.08 711.845 1175.42 708.262 1176.35 708.262C1177.52 708.262 1185.23 711.845 1193.65 716.224M1231.29 700.498L1248.12 670.638C1257.47 654.116 1264.95 640.579 1264.95 640.181C1264.95 639.783 1254.43 639.783 1241.81 640.181C1226.61 640.579 1218.19 641.575 1217.49 643.167C1217.03 644.561 1213.52 657.898 1210.01 673.027M1231.29 700.498L1238.3 723.192L1293 724.386V764M1293 764H1113M1293 764H1234.56M1113 764H1234.56M1215.16 559.958L1216.56 551H1189.68L1191.08 556.574C1192.01 559.56 1193.18 563.541 1193.88 565.532C1195.05 568.916 1194.12 569.115 1184.53 567.921L1173.78 566.527V587.429L1184.53 586.036C1195.05 584.841 1195.29 585.04 1193.88 589.818C1192.95 592.605 1191.78 598.776 1190.84 603.752L1189.44 612.71H1218.66L1217.26 606.34M1215.16 559.958L1213.52 568.916L1222.87 567.721L1232.22 566.328V587.429L1222.64 586.036L1212.82 584.642L1214.22 592.207C1215.16 596.387 1216.32 602.757 1217.26 606.34M1215.16 559.958C1216.56 551.199 1216.32 551 1209.78 551H1203V612.71H1210.95C1218.43 612.71 1218.66 612.511 1217.26 606.34M1210.01 673.027L1203.47 700.299H1189.91C1179.86 700.299 1176.35 701.095 1175.18 703.484C1173.31 707.664 1173.31 708.262 1176.12 708.262C1177.29 708.262 1185.23 711.845 1193.65 716.224M1210.01 673.027C1213.52 657.898 1217.03 644.362 1217.73 643.167C1218.43 641.376 1225.44 640.579 1241.34 640.579C1262.14 640.38 1263.31 640.181 1259.1 637.394C1253.96 634.01 1240.17 628.636 1228.48 625.251C1217.73 622.265 1183.83 623.46 1170.27 627.441C1159.29 630.626 1143.39 638.39 1143.39 640.579C1143.39 641.177 1150.64 654.514 1159.29 670.439L1174.95 699.304L1203.47 700.498L1210.01 673.027ZM1193.65 716.224C1206.51 722.993 1210.95 724.187 1221.7 724.187H1234.56V764M1175.42 576.879C1175.42 570.907 1174.95 568.319 1174.48 571.504C1174.01 574.49 1174.01 579.267 1174.48 582.452C1174.95 585.438 1175.42 582.85 1175.42 576.879ZM1203.23 610.122C1203.7 608.729 1203.94 594.993 1203.7 579.864L1203 551.995L1196.22 551.398C1190.14 550.801 1189.68 551.199 1191.08 555.778C1191.78 558.564 1193.18 563.143 1193.88 565.93C1195.05 569.712 1194.58 570.707 1192.25 570.11C1190.38 569.712 1186.17 568.717 1182.43 568.12C1176.12 566.925 1176.12 566.925 1176.12 576.878V586.832L1185.94 585.637L1195.52 584.244L1194.12 592.007C1193.18 596.188 1192.01 602.757 1191.08 606.34C1189.68 612.312 1189.91 612.71 1195.75 612.71C1199.26 612.71 1202.53 611.516 1203.23 610.122Z" stroke="#92B1CC" stroke-width="2.3946" shape-rendering="crispEdges"/>
</g>
<g filter="url(#filter13_d_31_2)">
<path d="M1141.07 857.888L1140.58 881.866L1140.25 905.696L1150.14 911.32C1161.69 917.685 1161.19 913.096 1156.25 955.575L1152.62 986.658L1132 987.546V1017M1141.07 857.888L1140.58 882.014L1140.25 905.992H1219.42M1141.07 857.888L1160.04 857V871.949H1178.02L1178.51 864.993L1179.01 857.888M1179.01 857.888H1210.34M1179.01 857.888H1193.85L1194.35 864.993L1194.84 871.949H1219.42M1210.34 857.888L1210.84 864.993L1211.33 871.949M1210.34 857.888L1193.85 857L1194.35 864.549L1195.01 871.949H1211.33M1211.33 871.949H1229.31V857M1229.31 857L1229.31 864.549C1229.31 871.801 1229.15 871.949 1224.36 871.949H1219.42M1229.31 857L1248.28 857.888L1248.77 882.014L1249.1 905.992L1241.52 910.136C1237.39 912.356 1232.94 914.872 1231.62 915.612C1229.64 916.944 1229.81 921.385 1232.61 947.435C1234.42 964.16 1236.4 979.997 1236.9 982.661L1237.72 987.398H1259V1017M1259 1017H1132M1259 1017H1217.77M1132 1017V987.398H1141.73C1147.17 987.398 1151.96 986.806 1152.62 986.066C1153.11 985.326 1153.94 980.737 1154.43 976.001C1155.26 967.564 1156.41 956.019 1157.56 945.955C1157.89 943.142 1158.55 936.186 1159.21 930.414C1159.87 924.789 1160.86 919.609 1161.36 919.017C1162.02 918.425 1171.58 923.013 1182.8 929.081L1202.92 940.33M1132 1017H1217.77M1219.42 871.949V905.992M1219.42 905.992H1180.16L1141.07 906.14L1149.98 911.172C1154.93 913.984 1159.38 916.796 1159.87 917.389C1160.37 918.129 1161.85 918.721 1162.84 918.869C1164 919.165 1173.56 924.049 1183.95 929.821L1202.92 940.33M1202.92 940.33L1203.09 947.879C1203.25 952.171 1203.75 962.532 1204.41 971.117L1205.4 986.658L1211.5 987.102L1217.77 987.546V1017" stroke="#92B1CC" stroke-width="2.3946" shape-rendering="crispEdges"/>
</g>
<g filter="url(#filter14_d_31_2)">
<path d="M516 728.456V769M516 728.456L459.171 727.234L451.886 704.007L469.614 673.039C483.7 648.591 486.614 641.664 483.943 640.237C482.243 639.219 473.743 635.348 465 631.884C450.186 625.772 447.514 625.364 423.714 625.364C397 625.568 379.514 629.439 365.429 638.404L359.6 642.275L377.086 673.65L394.571 704.822L390.686 716.639L386.557 728.252H329V769M516 728.456L459.361 727.234L452.1 704.007L469.527 673.447C479.209 656.536 486.955 642.682 486.955 642.275C486.955 641.867 476.062 641.867 462.992 642.275C447.259 642.682 438.545 643.701 437.819 645.331C437.335 646.757 433.705 660.407 430.074 675.892L423.297 703.804H409.258C398.85 703.804 395.219 704.619 394.009 707.064C392.073 711.342 392.073 711.953 394.977 711.953C396.188 711.953 404.417 715.621 413.131 720.103C426.443 727.03 431.042 728.252 442.176 728.252H455.489V769H516M516 769H329M329 769V728.217H386.318L389.462 720.061C391.155 715.575 393.574 711.904 394.541 711.904C395.75 711.904 403.731 715.575 412.438 720.061C425.74 726.994 430.335 728.217 441.46 728.217H454.762V769H329ZM409.871 604.991C410.843 599.897 412.057 593.581 413.029 590.729C414.486 585.839 414.243 585.636 403.314 586.858L392.143 588.284V566.892L403.314 568.318C413.271 569.54 414.243 569.336 413.029 565.873C412.3 563.836 411.086 559.761 410.114 556.705L408.657 551H436.586L435.129 560.168L433.429 569.336L443.143 568.114L452.857 566.688V588.284L442.9 586.858L432.7 585.432L434.157 593.174C435.129 597.452 436.343 603.972 437.314 607.639L438.771 614.159H408.414L409.871 604.991ZM437.577 607.639C436.609 603.972 435.399 597.452 434.431 593.174L432.978 585.432L443.144 586.858L453.068 588.284V566.688L443.386 568.114L433.705 569.336L435.399 560.168C436.851 551.204 436.609 551 429.832 551H422.813V614.159H431.042C438.787 614.159 439.03 613.955 437.577 607.639ZM394.251 577.486C394.251 571.374 393.767 568.725 393.283 571.985C392.799 575.041 392.799 579.931 393.283 583.191C393.767 586.247 394.251 583.598 394.251 577.486ZM429.367 675.812C432.995 660.314 436.623 646.448 437.348 645.225C438.074 643.39 445.329 642.574 461.775 642.574C483.3 642.37 484.509 642.166 480.156 639.311C474.835 635.845 460.566 630.339 448.473 626.873C437.348 623.814 402.28 625.037 388.253 629.116C376.886 632.378 360.44 640.331 360.44 642.574C360.44 643.186 367.938 656.848 376.886 673.161L393.09 702.728L422.596 703.952L429.367 675.812ZM422.354 611.375C422.837 609.948 423.079 595.878 422.837 580.381L422.112 551.833L415.098 551.221C408.81 550.609 408.327 551.017 409.778 555.707C410.503 558.562 411.954 563.252 412.68 566.107C413.889 569.981 413.405 571.001 410.987 570.389C409.052 569.981 404.699 568.961 400.829 568.35C394.299 567.126 394.299 567.126 394.299 577.322V587.517L404.457 586.294L414.373 584.867L412.922 592.819C411.954 597.101 410.745 603.831 409.778 607.501C408.327 613.618 408.568 614.026 414.615 614.026C418.242 614.026 421.628 612.803 422.354 611.375Z" stroke="#A29494" stroke-width="2.3946" shape-rendering="crispEdges"/>
</g>
<g filter="url(#filter15_d_31_2)">
<path d="M875.929 1101.87L875.387 1125.24L875.026 1148.48L885.857 1153.96C898.494 1160.17 897.952 1155.69 892.536 1197.11L888.565 1227.42L866 1228.28V1257M875.929 1101.87L875.387 1125.39L875.026 1148.77H961.675M875.929 1101.87L896.688 1101V1115.58H916.365L916.906 1108.79L917.448 1101.87M917.448 1101.87H951.747M917.448 1101.87H933.695L934.236 1108.79L934.778 1115.58H961.675M951.747 1101.87L952.288 1108.79L952.83 1115.58M951.747 1101.87L933.695 1101L934.236 1108.36L934.958 1115.58L952.83 1115.58M952.83 1115.58H972.506V1101M972.506 1101V1108.36C972.506 1115.43 972.326 1115.58 967.091 1115.58H961.675M972.506 1101L993.266 1101.87L993.808 1125.39L994.169 1148.77L985.865 1152.81C981.352 1154.97 976.478 1157.43 975.034 1158.15C972.868 1159.45 973.048 1163.78 976.117 1189.17C978.103 1205.48 980.269 1220.92 980.81 1223.52L981.713 1228.14H1005V1257M1005 1257H866M1005 1257H959.87M866 1257V1228.14H876.651C882.608 1228.14 887.843 1227.56 888.565 1226.84C889.106 1226.12 890.009 1221.64 890.551 1217.03C891.453 1208.8 892.717 1197.54 893.981 1187.73C894.342 1184.99 895.064 1178.21 895.786 1172.58C896.508 1167.09 897.591 1162.04 898.132 1161.47C898.855 1160.89 909.325 1165.36 921.6 1171.28L943.623 1182.25M866 1257H959.87M961.675 1115.58V1148.77M961.675 1148.77H918.712L875.929 1148.91L885.677 1153.82C891.092 1156.56 895.966 1159.3 896.508 1159.88C897.049 1160.6 898.674 1161.18 899.757 1161.32C901.021 1161.61 911.491 1166.37 922.864 1172L943.623 1182.25M943.623 1182.25L943.804 1189.61C943.984 1193.79 944.526 1203.89 945.248 1212.26L946.331 1227.42L953.01 1227.85L959.87 1228.28V1257" stroke="#A29494" stroke-width="2.3946" shape-rendering="crispEdges"/>
</g>
<rect x="544.5" y="352.5" width="271" height="1003" fill="#FEFEFE" stroke="#443E3E" stroke-width="3"/>
<rect x="544.5" y="352.5" width="271" height="1003" fill="#FEFEFE" stroke="#443E3E" stroke-width="3"/>
<g filter="url(#filter16_d_31_2)">
<rect x="565" y="372" width="225" height="208" rx="5" fill="white"/>
<rect x="567" y="374" width="221" height="204" rx="3" stroke="#9A8F8F" stroke-width="4"/>
</g>
<g filter="url(#filter17_d_31_2)">
<rect x="565" y="607" width="225" height="208" rx="5" fill="white"/>
<rect x="567" y="609" width="221" height="204" rx="3" stroke="#9A8F8F" stroke-width="4"/>
</g>
<g filter="url(#filter18_d_31_2)">
<rect x="565" y="854" width="225" height="208" rx="5" fill="white"/>
<rect x="567" y="856" width="221" height="204" rx="3" stroke="#9A8F8F" stroke-width="4"/>
</g>
<g filter="url(#filter19_d_31_2)">
<rect x="565" y="1101" width="225" height="208" rx="5" fill="white"/>
<rect x="567" y="1103" width="221" height="204" rx="3" stroke="#9A8F8F" stroke-width="4"/>
</g>
<g filter="url(#filter20_d_31_2)">
<path d="M610 554.091H746.828V524.451H714.781L712.981 517.486C711.901 513.484 709.74 504.741 708.12 497.775L705.239 485.178L744.847 414.636L739.086 415.673C726.303 417.896 725.223 418.637 725.223 425.602C725.223 431.234 724.143 433.012 714.421 441.904L703.619 451.982V437.31C703.619 423.676 703.979 422.49 708.12 419.23C710.64 417.303 712.621 414.932 712.621 414.043C712.621 411.375 705.059 397 703.799 397C703.079 397 699.118 399.816 694.977 403.373L687.236 409.745L690.116 415.08C692.637 420.267 692.457 420.86 686.155 433.161C682.555 440.126 679.134 445.906 678.594 445.906C677.874 445.906 674.453 440.274 670.852 433.161C664.551 421.008 664.371 420.415 666.891 415.228L669.592 409.893L662.03 403.521C657.71 399.964 653.749 397 653.029 397C652.309 397 649.968 401.001 647.808 405.892L643.667 414.932L648.528 419.082C652.849 422.787 653.209 423.972 653.209 437.162L653.029 451.093L642.407 441.608C633.045 433.309 631.784 431.234 631.244 425.306C630.704 418.785 630.524 418.489 622.783 416.71C618.282 415.673 614.321 415.08 613.961 415.525C613.601 415.821 621.882 431.679 632.505 450.648L651.768 485.178L648.708 497.775C647.087 504.741 644.927 513.484 643.847 517.486L642.046 524.451H610V554.091ZM610 554.091V524.358H642.02L644.01 518.858C645.095 515.736 646.904 508.898 648.17 503.546C649.256 498.194 650.884 492.991 651.427 491.95C652.331 490.612 657.034 492.248 668.069 497.897L683.265 505.776L684.351 524.358H704.069V554.091L610 554.091ZM746.828 524.209H714.822L713.024 517.257C711.945 513.263 709.788 504.536 708.169 497.584L705.292 485.011L744.85 414.602L739.096 415.638C726.33 417.856 725.251 418.596 725.251 425.548C725.251 431.169 724.172 432.944 714.463 441.819L703.674 451.877V437.233C703.674 423.625 704.034 422.442 708.169 419.188C710.687 417.265 712.664 414.898 712.664 414.01C712.664 410.756 705.113 397 703.315 397C702.416 397 702.056 397.592 702.595 398.183C703.135 398.923 698.64 418.004 692.886 440.783C686.952 463.415 682.097 482.496 682.097 483.088C682.097 483.827 675.265 484.271 666.814 484.271C654.767 484.271 651.53 484.715 651.53 486.342C651.53 487.525 650.991 489.744 650.452 491.223C649.732 492.998 649.912 493.294 650.991 491.963C652.25 490.632 656.385 492.111 667.893 497.88L682.996 505.719L684.075 524.209H703.674V553.792H746.828V524.209ZM671.309 463.859C671.309 462.823 673.287 458.681 675.804 454.392C678.321 450.25 679.58 446.404 678.681 445.961C677.962 445.517 674.366 439.6 670.77 432.796C664.476 420.963 664.476 420.371 666.994 415.194L669.691 409.869L662.139 403.508C657.824 399.958 653.868 397 653.328 397C651.89 397 668.252 463.119 670.05 464.45C670.77 465.042 671.309 464.746 671.309 463.859ZM682.361 483.03C682.361 482.436 687.245 463.258 693.215 440.365C699.185 417.619 703.526 398.591 702.984 398.145C702.622 397.699 698.823 400.077 694.843 403.348L687.607 409.294L690.501 415.092C693.034 419.701 693.034 421.485 691.225 424.606C689.054 428.472 685.979 434.269 682.723 441.108C681.818 443.189 678.743 448.69 676.21 453.447C673.677 458.204 671.507 462.812 671.507 463.853C671.326 469.8 667.346 457.312 660.653 429.661C656.311 412.267 652.15 398.442 651.427 398.888C650.522 399.334 649.798 400.821 649.798 402.307C649.798 403.645 649.075 405.429 648.17 406.321C644.19 409.889 644.371 415.389 648.894 418.809C653.055 422.079 653.416 423.268 653.416 436.202C653.416 443.784 652.693 450.028 651.969 450.028C651.065 450.028 647.628 447.203 644.371 443.784C640.934 440.216 636.773 436.499 634.964 435.459C632.613 434.121 631.708 431.594 631.708 426.985C631.708 423.417 630.623 419.998 629.356 419.255C625.919 417.471 614.703 414.349 613.98 415.092C613.437 415.389 615.427 419.552 618.141 424.309C633.155 450.622 640.934 464.745 646.904 475.746L651.427 484.22H666.803C675.486 484.22 682.361 483.774 682.361 483.03Z" stroke="#A29494" stroke-width="2.3946" shape-rendering="crispEdges"/>
</g>
<g filter="url(#filter21_d_31_2)">
<path d="M726.949 708.785C741.794 681.574 728.104 646.954 696.766 633.134L689.839 630L653.553 650.8C629.473 664.762 617.927 672.313 618.587 673.453C619.247 674.45 623.37 679.152 627.988 684.138C635.41 692.401 639.039 694.823 639.039 691.689C639.039 690.976 642.503 688.982 646.626 687.272C654.873 683.711 662.79 683.995 669.882 688.127L674.17 690.407L618.917 738.133L645.966 757.794L611 758.649V787M726.949 708.785C724.31 713.771 720.517 719.47 718.538 721.465L715.074 725.026L729.918 738.133L716.393 747.964L703.034 757.794L738 758.649V787M726.949 708.785C736.021 692.259 734.701 671.173 723.816 655.074C718.703 647.666 706.003 637.123 697.096 633.277C688.355 629.43 686.87 629.43 692.808 633.562C700.395 638.548 704.848 643.25 709.796 651.655C730.248 685.705 708.806 726.451 665.758 735.854M738 787H611M738 787H688.519M611 787V758.506H628.318C638.709 758.506 645.636 757.936 645.636 757.082C645.636 756.369 644.977 755.657 644.317 755.657C643.657 755.657 640.358 753.52 637.06 750.813C633.926 748.249 630.132 745.399 628.978 744.829C627.658 744.117 625.184 742.123 623.535 740.27L620.236 736.994L658.006 704.368L690.169 704.368M611 787H688.519M665.758 735.854C659.986 736.994 655.368 738.276 655.203 738.703C655.038 738.988 656.687 743.547 658.666 748.961L662.46 758.506M665.758 735.854C659.986 736.994 655.368 738.703 655.532 739.416C655.532 740.128 657.017 744.687 658.996 749.673L662.46 758.506M665.758 735.854C708.806 726.451 730.083 685.99 709.961 651.655C705.508 644.247 692.973 631.71 689.839 631.71C687.86 631.71 619.247 671.458 619.247 672.598C619.247 673.453 631.452 687.7 635.905 692.116C636.73 692.829 638.544 692.116 640.194 690.549C646.296 684.423 660.975 682.713 669.552 687.272L674.5 689.837L682.252 683.283L690.169 676.73M662.46 758.506H688.519V787M690.169 676.73L682.252 683.426C675.655 688.982 674.005 689.837 672.026 688.412C669.882 686.845 669.882 686.845 671.696 688.697C673.345 690.407 672.356 691.831 665.923 697.53L658.171 704.368H690.169M690.169 676.73V704.368" stroke="#A29494" stroke-width="2.3946" shape-rendering="crispEdges"/>
</g>
<g filter="url(#filter22_d_31_2)">
<path d="M614.5 884.866L613.982 908.244L613.636 931.478L624 936.962C636.091 943.167 635.573 938.694 630.391 980.111L626.591 1010.42L605 1011.28V1040M614.5 884.866L613.982 908.389L613.636 931.767H696.545M614.5 884.866L634.364 884V898.575H653.191L653.709 891.793L654.227 884.866M654.227 884.866H687.045M654.227 884.866H669.773L670.291 891.793L670.809 898.575H696.545M687.045 884.866L687.564 891.793L688.082 898.575M687.045 884.866L669.773 884L670.291 891.36L670.982 898.575L688.082 898.575M688.082 898.575H706.909V884M706.909 884V891.36C706.909 898.431 706.736 898.575 701.727 898.575H696.545M706.909 884L726.773 884.866L727.291 908.389L727.636 931.767L719.691 935.808C715.373 937.972 710.709 940.426 709.327 941.147C707.255 942.446 707.427 946.775 710.364 972.174C712.264 988.481 714.336 1003.92 714.855 1006.52L715.718 1011.14H738V1040M738 1040H605M738 1040H694.818M605 1040V1011.14H615.191C620.891 1011.14 625.9 1010.56 626.591 1009.84C627.109 1009.12 627.973 1004.64 628.491 1000.03C629.355 991.8 630.564 980.544 631.773 970.731C632.118 967.989 632.809 961.206 633.5 955.578C634.191 950.094 635.227 945.043 635.745 944.466C636.436 943.889 646.455 948.363 658.2 954.279L679.273 965.247M605 1040H694.818M696.545 898.575V931.767M696.545 931.767H655.436L614.5 931.911L623.827 936.818C629.009 939.56 633.673 942.302 634.191 942.879C634.709 943.6 636.264 944.178 637.3 944.322C638.509 944.611 648.527 949.373 659.409 955.001L679.273 965.247M679.273 965.247L679.445 972.607C679.618 976.792 680.136 986.894 680.827 995.264L681.864 1010.42L688.255 1010.85L694.818 1011.28V1040" stroke="#A29494" stroke-width="2.3946" shape-rendering="crispEdges"/>
</g>
<g filter="url(#filter23_d_31_2)">
<path d="M603 1256.73H638.992L646.345 1233.02C650.409 1219.84 654.086 1208.43 654.666 1207.55C655.053 1206.67 648.861 1199.65 640.734 1191.89C632.8 1183.98 626.221 1176.96 626.221 1176.08C626.221 1175.2 630.284 1170.52 635.316 1165.69L644.41 1156.76L649.442 1161.3L654.666 1165.98L667.051 1152.81L663.181 1148.56C660.858 1146.22 659.117 1143.88 659.117 1143.3C659.117 1141.83 676.919 1125 678.274 1125C678.855 1125.15 685.434 1131.15 692.981 1138.61C700.334 1145.93 712.138 1157.35 718.717 1164.08L731.101 1176.08L700.914 1205.65M603 1256.73L639.186 1256.73L643.249 1243.99C651.57 1218.09 654.086 1211.35 655.44 1211.35C656.214 1211.35 662.6 1213.99 669.566 1217.36M603 1256.73V1286M700.914 1205.65L707.106 1225.7C710.59 1236.68 714.266 1248.24 715.427 1251.31L717.362 1256.73H752V1286M700.914 1205.65L715.814 1191.01C723.942 1182.96 730.714 1176.23 730.714 1175.93C730.714 1175.64 720.265 1175.79 707.687 1176.23L684.66 1176.96L670.727 1190.57C663.181 1197.89 656.408 1204.04 655.634 1204.04M752 1286H603M752 1286H703.623M603 1286H703.623M655.634 1204.04C654.86 1204.04 654.086 1205.65 654.086 1207.7C653.892 1209.74 654.473 1211.35 655.247 1211.35C656.214 1211.35 662.6 1213.99 669.566 1217.36M655.634 1204.04C654.86 1204.04 652.151 1201.84 649.442 1199.21C646.732 1196.72 640.347 1190.42 635.122 1185.45L626.027 1176.52L633.961 1167.59C638.412 1162.76 642.669 1158.37 643.443 1157.93C644.41 1157.64 648.668 1161.3 653.312 1165.98C657.956 1170.81 662.213 1174.76 662.987 1174.76M655.634 1204.04C656.408 1204.04 663.374 1197.74 671.114 1190.13L685.24 1176.23H706.913C718.91 1176.23 728.779 1175.79 728.586 1175.2C728.586 1173.89 722.587 1167.88 698.205 1144.76C688.53 1135.39 680.403 1127.05 680.403 1126.32C680.403 1123.39 676.919 1125.59 668.212 1134.51L658.923 1143.88L667.631 1152.37M669.566 1217.36L681.951 1223.21L683.305 1237.41C685.047 1257.02 684.853 1256.73 695.109 1256.73H703.623V1286M676.532 1162.03C676.532 1162.76 673.823 1165.84 670.34 1169.06C667.051 1172.13 663.761 1174.76 662.987 1174.76M676.532 1162.03C676.532 1161.44 674.597 1158.96 672.082 1156.61L667.631 1152.37M676.532 1162.03C676.532 1161.44 672.469 1157.05 667.631 1152.37M676.532 1162.03C676.532 1163.64 664.729 1174.76 662.987 1174.76M667.631 1152.37L660.665 1159.54L653.699 1166.57L657.762 1170.67C659.891 1172.86 662.407 1174.76 662.987 1174.76" stroke="#A29494" stroke-width="2.4" shape-rendering="crispEdges"/>
</g>
<rect x="544.5" y="1357.5" width="271" height="129" fill="#D9D9D9" stroke="#857A7A" stroke-width="3"/>
<path d="M721.912 1460H692.728V1457.02L700.312 1451.17L682.072 1428.13L662.104 1450.69L676.024 1456.16L674.104 1460H644.92V1457.02L655.576 1450.5L679.096 1424.29L655.576 1394.24L645.88 1388.38L647.8 1384.54H676.984V1387.52L669.4 1393.38L687.544 1416.22L705.88 1393.95L691.864 1388.38L693.784 1384.54H722.968V1387.52L713.08 1393.57L690.712 1420.16L714.232 1450.3L723.832 1456.16L721.912 1460Z" fill="#837474"/>
<rect x="1.5" y="1.5" width="1354" height="281" fill="#FEFEFE" stroke="#443E3E" stroke-width="3"/>
<rect x="51.5" y="44.5" width="195" height="195" rx="2.5" fill="#D9D9D9" stroke="#C9C0B9" stroke-width="5"/>
<rect x="318.5" y="44.5" width="195" height="195" rx="2.5" fill="#F5F5EA" stroke="#F1E3E3" stroke-width="5"/>
<rect x="585.5" y="44.5" width="195" height="195" rx="2.5" fill="#D9D9D9" stroke="#C9C0B9" stroke-width="5"/>
<rect x="1115.5" y="44.5" width="195" height="195" rx="2.5" fill="#D9D9D9" stroke="#C9C0B9" stroke-width="5"/>
<rect x="852.5" y="44.5" width="195" height="195" rx="2.5" fill="#F5F5EA" stroke="#F1E3E3" stroke-width="5"/>
<path d="M1223.78 160.133L1271.9 220.934H1242.25L1207.02 174.527V144.664L1237.1 99.7617H1266.32L1223.78 160.133ZM1172 220.934V54H1198.21V220.934H1172Z" fill="black"/>
<path d="M922.203 93.2891L924.996 105.535V214.461H899V93.2891H922.203ZM989.234 106.609C991.669 109.044 993.531 111.909 994.82 115.203C996.253 118.354 997.255 121.72 997.828 125.301C998.544 128.738 998.974 132.247 999.117 135.828C999.26 139.409 999.332 142.918 999.332 146.355V214.461H973.121V148.504C973.121 143.634 972.906 138.979 972.477 134.539C972.047 130.099 971.044 126.16 969.469 122.723C967.893 119.285 965.745 116.635 963.023 114.773C960.302 112.768 956.507 111.766 951.637 111.766C949.632 111.766 946.91 112.124 943.473 112.84C940.178 113.413 936.956 114.415 933.805 115.848V99.3047C937.672 97.2995 941.826 95.5807 946.266 94.1484C950.849 92.7161 955.289 92 959.586 92C966.031 92 971.474 93.3607 975.914 96.082C980.354 98.6602 984.794 102.169 989.234 106.609Z" fill="black"/>
<path d="M654.277 178.508C654.277 184.953 655.566 189.751 658.145 192.902C660.866 196.053 664.733 197.915 669.746 198.488V215.891C669.173 216.034 668.242 216.105 666.953 216.105C662.083 216.105 657.357 215.461 652.773 214.172C648.333 212.883 644.395 210.806 640.957 207.941C637.52 205.077 634.798 201.281 632.793 196.555C630.931 191.828 630 186.027 630 179.152C630 172.564 631.361 166.906 634.082 162.18C636.947 157.31 640.527 153.371 644.824 150.363C649.264 147.212 654.277 144.921 659.863 143.488C665.449 141.913 671.107 141.125 676.836 141.125H686.289V156.379H681.562C678.698 156.379 675.69 156.665 672.539 157.238C669.388 157.811 666.452 158.885 663.73 160.461C661.009 162.036 658.717 164.328 656.855 167.336C655.137 170.201 654.277 173.924 654.277 178.508ZM721.094 179.152C721.094 180.298 721.165 182.017 721.309 184.309C721.452 186.457 721.738 188.677 722.168 190.969C722.598 193.26 723.242 195.337 724.102 197.199C725.104 199.061 726.393 200.279 727.969 200.852L721.094 215.246C719.232 215.246 717.227 214.816 715.078 213.957C713.073 213.098 711.068 211.88 709.062 210.305C707.201 208.729 705.553 207.01 704.121 205.148C702.832 203.143 701.829 200.995 701.113 198.703C699.681 202.284 696.816 205.507 692.52 208.371C688.366 211.092 683.711 213.098 678.555 214.387V198.059C681.992 197.342 685.072 195.982 687.793 193.977C690.658 191.828 693.092 189.322 695.098 186.457V141.125C695.098 134.107 694.74 128.521 694.023 124.367C693.307 120.214 692.09 117.206 690.371 115.344C688.652 113.339 686.504 112.121 683.926 111.691C681.491 111.118 678.555 110.832 675.117 110.832C671.966 110.832 668.958 111.262 666.094 112.121C663.372 112.837 660.794 113.768 658.359 114.914C656.068 115.917 653.991 117.062 652.129 118.352C650.41 119.641 649.121 120.643 648.262 121.359L638.594 106.535C640.026 104.96 642.174 103.384 645.039 101.809C647.904 100.09 651.198 98.5859 654.922 97.2969C658.646 96.0078 662.656 95.0052 666.953 94.2891C671.393 93.4297 675.977 93 680.703 93C685 93 689.154 93.4297 693.164 94.2891C697.318 95.1484 701.042 96.5807 704.336 98.5859C707.773 100.591 710.71 103.312 713.145 106.75C715.723 110.044 717.513 114.198 718.516 119.211C719.518 124.224 720.163 129.309 720.449 134.465C720.879 139.478 721.094 144.491 721.094 149.504V179.152Z" fill="black"/>
<path d="M362 62H387.781V220.34H362V62ZM469.422 220.34H442.137L412.273 162.977C411.844 162.977 411.342 163.048 410.77 163.191C410.34 163.191 409.624 163.191 408.621 163.191C407.618 163.191 406.115 163.191 404.109 163.191C402.247 163.191 399.741 163.191 396.59 163.191V144.285H411.199C414.35 144.285 417.501 143.784 420.652 142.781C423.803 141.635 426.668 139.845 429.246 137.41C431.824 134.975 433.901 131.609 435.477 127.312C437.052 122.872 437.84 117.43 437.84 110.984C437.84 108.406 437.482 105.47 436.766 102.176C436.049 98.7383 434.546 95.5156 432.254 92.5078C430.105 89.3568 427.026 86.7786 423.016 84.7734C419.005 82.625 413.706 81.5508 407.117 81.5508H396.59V62H407.547C414.279 62 420.939 63.0742 427.527 65.2227C434.116 67.3711 439.988 70.5938 445.145 74.8906C450.444 79.1875 454.669 84.4154 457.82 90.5742C461.115 96.5898 462.762 103.393 462.762 110.984C462.762 122.443 460.112 132.182 454.812 140.203C449.513 148.224 442.352 154.168 433.328 158.035L469.422 220.34Z" fill="black"/>
<path d="M103.941 101.035C103.941 94.8763 105.016 89.362 107.164 84.4922C109.312 79.6224 112.177 75.4688 115.758 72.0312C119.339 68.5938 123.564 65.944 128.434 64.082C133.447 62.0768 138.818 60.7878 144.547 60.2148V81.0547C138.961 81.9141 134.449 84.0625 131.012 87.5C127.717 90.7943 126.07 95.4492 126.07 101.465C126.07 105.332 127.789 108.841 131.227 111.992C134.807 115.143 139.247 118.223 144.547 121.23V147.227L141.109 145.293C139.247 146.868 137.171 148.659 134.879 150.664C132.73 152.669 130.725 154.961 128.863 157.539C127.001 160.117 125.354 163.053 123.922 166.348C122.633 169.642 121.988 173.223 121.988 177.09C121.988 183.105 124.065 188.262 128.219 192.559C132.516 196.855 137.958 199.577 144.547 200.723V221.133C129.938 220.273 118.694 216.12 110.816 208.672C102.939 201.224 99 191.126 99 178.379C99 167.78 101.435 158.9 106.305 151.738C111.318 144.434 117.835 138.991 125.855 135.41C119.697 130.97 114.469 126.029 110.172 120.586C106.018 115 103.941 108.483 103.941 101.035ZM169.898 136.055C173.766 138.49 177.418 141.139 180.855 144.004C184.436 146.725 187.516 149.805 190.094 153.242C192.815 156.536 194.964 160.189 196.539 164.199C198.115 168.21 198.902 172.578 198.902 177.305C198.902 183.893 197.685 189.837 195.25 195.137C192.815 200.436 189.521 204.948 185.367 208.672C181.214 212.396 176.344 215.404 170.758 217.695C165.315 219.844 159.514 221.061 153.355 221.348V200.938C156.65 200.651 159.586 199.863 162.164 198.574C164.885 197.285 167.249 195.71 169.254 193.848C171.259 191.842 172.835 189.694 173.98 187.402C175.126 185.111 175.699 182.747 175.699 180.312C175.699 174.583 173.479 169.57 169.039 165.273C164.742 160.833 159.514 156.68 153.355 152.812V126.172C153.928 126.602 154.788 127.103 155.934 127.676C159.658 124.525 163.095 120.801 166.246 116.504C169.397 112.207 170.973 107.051 170.973 101.035C170.973 93.5872 169.254 88.431 165.816 85.5664C162.379 82.7018 158.225 81.1263 153.355 80.8398V60C160.517 60.2865 166.604 61.5755 171.617 63.8672C176.63 66.1589 180.712 69.2383 183.863 73.1055C187.014 76.8294 189.306 81.0547 190.738 85.7812C192.171 90.5078 192.887 95.4492 192.887 100.605C192.887 104.043 192.171 107.409 190.738 110.703C189.449 113.854 187.73 116.934 185.582 119.941C183.434 122.949 180.927 125.814 178.062 128.535C175.341 131.257 172.62 133.763 169.898 136.055Z" fill="black"/>
<path d="M203.648 139.32C203.648 140.206 203.766 140.896 204 141.391C204.234 141.885 204.56 142.263 204.977 142.523C205.419 142.784 205.901 142.953 206.422 143.031C206.969 143.083 207.542 143.109 208.141 143.109V146C207.802 146.052 207.464 146.091 207.125 146.117C206.839 146.143 206.487 146.156 206.07 146.156C205.68 146.182 205.289 146.195 204.898 146.195C204.508 146.195 204.104 146.182 203.688 146.156C203.297 146.13 202.958 146.091 202.672 146.039C201.786 145.883 201.096 145.505 200.602 144.906C200.107 144.281 199.729 143.604 199.469 142.875C199.234 142.12 199.078 141.391 199 140.688C198.948 139.984 198.922 139.438 198.922 139.047V127.172H196.031V123.969H198.922V117.719H203.648V123.969H207.164V127.172H203.648V139.32ZM221.688 115.648H226.414V146H221.688V115.648ZM238.094 126.391C238.536 126.833 238.875 127.354 239.109 127.953C239.37 128.526 239.552 129.138 239.656 129.789C239.786 130.414 239.865 131.052 239.891 131.703C239.917 132.354 239.93 132.992 239.93 133.617V145.219V146H235.164V134.008C235.164 133.122 235.125 132.276 235.047 131.469C234.969 130.661 234.786 129.945 234.5 129.32C234.214 128.695 233.823 128.214 233.328 127.875C232.833 127.51 232.143 127.328 231.258 127.328C230.893 127.328 230.398 127.393 229.773 127.523C229.174 127.628 228.589 127.81 228.016 128.07V125.062C228.719 124.698 229.474 124.385 230.281 124.125C231.115 123.865 231.922 123.734 232.703 123.734C233.875 123.734 234.865 123.982 235.672 124.477C236.479 124.945 237.286 125.583 238.094 126.391Z" fill="black"/>
<defs>
<filter id="filter0_f_31_2" x="1057" y="311" width="280" height="280" filterUnits="userSpaceOnUse" color-interpolation-filters="sRGB">
<feFlood flood-opacity="0" result="BackgroundImageFix"/>
<feBlend mode="normal" in="SourceGraphic" in2="BackgroundImageFix" result="shape"/>
<feGaussianBlur stdDeviation="20" result="effect1_foregroundBlur_31_2"/>
</filter>
<filter id="filter1_f_31_2" x="7" y="314" width="280" height="280" filterUnits="userSpaceOnUse" color-interpolation-filters="sRGB">
<feFlood flood-opacity="0" result="BackgroundImageFix"/>
<feBlend mode="normal" in="SourceGraphic" in2="BackgroundImageFix" result="shape"/>
<feGaussianBlur stdDeviation="20" result="effect1_foregroundBlur_31_2"/>
</filter>
<filter id="filter2_f_31_2" x="799" y="1039" width="280" height="280" filterUnits="userSpaceOnUse" color-interpolation-filters="sRGB">
<feFlood flood-opacity="0" result="BackgroundImageFix"/>
<feBlend mode="normal" in="SourceGraphic" in2="BackgroundImageFix" result="shape"/>
<feGaussianBlur stdDeviation="20" result="effect1_foregroundBlur_31_2"/>
</filter>
<filter id="filter3_f_31_2" x="1057" y="800" width="280" height="280" filterUnits="userSpaceOnUse" color-interpolation-filters="sRGB">
<feFlood flood-opacity="0" result="BackgroundImageFix"/>
<feBlend mode="normal" in="SourceGraphic" in2="BackgroundImageFix" result="shape"/>
<feGaussianBlur stdDeviation="20" result="effect1_foregroundBlur_31_2"/>
</filter>
<filter id="filter4_f_31_2" x="798" y="550" width="280" height="280" filterUnits="userSpaceOnUse" color-interpolation-filters="sRGB">
<feFlood flood-opacity="0" result="BackgroundImageFix"/>
<feBlend mode="normal" in="SourceGraphic" in2="BackgroundImageFix" result="shape"/>
<feGaussianBlur stdDeviation="20" result="effect1_foregroundBlur_31_2"/>
</filter>
<filter id="filter5_f_31_2" x="282" y="550" width="280" height="280" filterUnits="userSpaceOnUse" color-interpolation-filters="sRGB">
<feFlood flood-opacity="0" result="BackgroundImageFix"/>
<feBlend mode="normal" in="SourceGraphic" in2="BackgroundImageFix" result="shape"/>
<feGaussianBlur stdDeviation="20" result="effect1_foregroundBlur_31_2"/>
</filter>
<filter id="filter6_f_31_2" x="799" y="311" width="280" height="280" filterUnits="userSpaceOnUse" color-interpolation-filters="sRGB">
<feFlood flood-opacity="0" result="BackgroundImageFix"/>
<feBlend mode="normal" in="SourceGraphic" in2="BackgroundImageFix" result="shape"/>
<feGaussianBlur stdDeviation="20" result="effect1_foregroundBlur_31_2"/>
</filter>
<filter id="filter7_f_31_2" x="7" y="562" width="280" height="280" filterUnits="userSpaceOnUse" color-interpolation-filters="sRGB">
<feFlood flood-opacity="0" result="BackgroundImageFix"/>
<feBlend mode="normal" in="SourceGraphic" in2="BackgroundImageFix" result="shape"/>
<feGaussianBlur stdDeviation="20" result="effect1_foregroundBlur_31_2"/>
</filter>
<filter id="filter8_f_31_2" x="281" y="311" width="280" height="280" filterUnits="userSpaceOnUse" color-interpolation-filters="sRGB">
<feFlood flood-opacity="0" result="BackgroundImageFix"/>
<feBlend mode="normal" in="SourceGraphic" in2="BackgroundImageFix" result="shape"/>
<feGaussianBlur stdDeviation="20" result="effect1_foregroundBlur_31_2"/>
</filter>
<filter id="filter9_f_31_2" x="798" y="800" width="280" height="280" filterUnits="userSpaceOnUse" color-interpolation-filters="sRGB">
<feFlood flood-opacity="0" result="BackgroundImageFix"/>
<feBlend mode="normal" in="SourceGraphic" in2="BackgroundImageFix" result="shape"/>
<feGaussianBlur stdDeviation="20" result="effect1_foregroundBlur_31_2"/>
</filter>
<filter id="filter10_f_31_2" x="278" y="800" width="280" height="280" filterUnits="userSpaceOnUse" color-interpolation-filters="sRGB">
<feFlood flood-opacity="0" result="BackgroundImageFix"/>
<feBlend mode="normal" in="SourceGraphic" in2="BackgroundImageFix" result="shape"/>
<feGaussianBlur stdDeviation="20" result="effect1_foregroundBlur_31_2"/>
</filter>
<filter id="filter11_f_31_2" x="1057" y="550" width="280" height="280" filterUnits="userSpaceOnUse" color-interpolation-filters="sRGB">
<feFlood flood-opacity="0" result="BackgroundImageFix"/>
<feBlend mode="normal" in="SourceGraphic" in2="BackgroundImageFix" result="shape"/>
<feGaussianBlur stdDeviation="20" result="effect1_foregroundBlur_31_2"/>
</filter>
<filter id="filter12_d_31_2" x="1111.8" y="549.803" width="191.395" height="223.395" filterUnits="userSpaceOnUse" color-interpolation-filters="sRGB">
<feFlood flood-opacity="0" result="BackgroundImageFix"/>
<feColorMatrix in="SourceAlpha" type="matrix" values="0 0 0 0 0 0 0 0 0 0 0 0 0 0 0 0 0 0 127 0" result="hardAlpha"/>
<feOffset dx="5" dy="4"/>
<feGaussianBlur stdDeviation="2"/>
<feComposite in2="hardAlpha" operator="out"/>
<feColorMatrix type="matrix" values="0 0 0 0 0 0 0 0 0 0 0 0 0 0 0 0 0 0 0.5 0"/>
<feBlend mode="normal" in2="BackgroundImageFix" result="effect1_dropShadow_31_2"/>
<feBlend mode="normal" in="SourceGraphic" in2="effect1_dropShadow_31_2" result="shape"/>
</filter>
<filter id="filter13_d_31_2" x="1130.8" y="855.732" width="138.395" height="170.465" filterUnits="userSpaceOnUse" color-interpolation-filters="sRGB">
<feFlood flood-opacity="0" result="BackgroundImageFix"/>
<feColorMatrix in="SourceAlpha" type="matrix" values="0 0 0 0 0 0 0 0 0 0 0 0 0 0 0 0 0 0 127 0" result="hardAlpha"/>
<feOffset dx="5" dy="4"/>
<feGaussianBlur stdDeviation="2"/>
<feComposite in2="hardAlpha" operator="out"/>
<feColorMatrix type="matrix" values="0 0 0 0 0 0 0 0 0 0 0 0 0 0 0 0 0 0 0.5 0"/>
<feBlend mode="normal" in2="BackgroundImageFix" result="effect1_dropShadow_31_2"/>
<feBlend mode="normal" in="SourceGraphic" in2="effect1_dropShadow_31_2" result="shape"/>
</filter>
<filter id="filter14_d_31_2" x="327.803" y="549.803" width="198.395" height="228.395" filterUnits="userSpaceOnUse" color-interpolation-filters="sRGB">
<feFlood flood-opacity="0" result="BackgroundImageFix"/>
<feColorMatrix in="SourceAlpha" type="matrix" values="0 0 0 0 0 0 0 0 0 0 0 0 0 0 0 0 0 0 127 0" result="hardAlpha"/>
<feOffset dx="5" dy="4"/>
<feGaussianBlur stdDeviation="2"/>
<feComposite in2="hardAlpha" operator="out"/>
<feColorMatrix type="matrix" values="0 0 0 0 0 0 0 0 0 0 0 0 0 0 0 0 0 0 0.5 0"/>
<feBlend mode="normal" in2="BackgroundImageFix" result="effect1_dropShadow_31_2"/>
<feBlend mode="normal" in="SourceGraphic" in2="effect1_dropShadow_31_2" result="shape"/>
</filter>
<filter id="filter15_d_31_2" x="864.803" y="1099.74" width="150.395" height="166.458" filterUnits="userSpaceOnUse" color-interpolation-filters="sRGB">
<feFlood flood-opacity="0" result="BackgroundImageFix"/>
<feColorMatrix in="SourceAlpha" type="matrix" values="0 0 0 0 0 0 0 0 0 0 0 0 0 0 0 0 0 0 127 0" result="hardAlpha"/>
<feOffset dx="5" dy="4"/>
<feGaussianBlur stdDeviation="2"/>
<feComposite in2="hardAlpha" operator="out"/>
<feColorMatrix type="matrix" values="0 0 0 0 0 0 0 0 0 0 0 0 0 0 0 0 0 0 0.5 0"/>
<feBlend mode="normal" in2="BackgroundImageFix" result="effect1_dropShadow_31_2"/>
<feBlend mode="normal" in="SourceGraphic" in2="effect1_dropShadow_31_2" result="shape"/>
</filter>
<filter id="filter16_d_31_2" x="565" y="372" width="234" height="216" filterUnits="userSpaceOnUse" color-interpolation-filters="sRGB">
<feFlood flood-opacity="0" result="BackgroundImageFix"/>
<feColorMatrix in="SourceAlpha" type="matrix" values="0 0 0 0 0 0 0 0 0 0 0 0 0 0 0 0 0 0 127 0" result="hardAlpha"/>
<feOffset dx="5" dy="4"/>
<feGaussianBlur stdDeviation="2"/>
<feComposite in2="hardAlpha" operator="out"/>
<feColorMatrix type="matrix" values="0 0 0 0 0 0 0 0 0 0 0 0 0 0 0 0 0 0 0.5 0"/>
<feBlend mode="normal" in2="BackgroundImageFix" result="effect1_dropShadow_31_2"/>
<feBlend mode="normal" in="SourceGraphic" in2="effect1_dropShadow_31_2" result="shape"/>
</filter>
<filter id="filter17_d_31_2" x="565" y="607" width="234" height="216" filterUnits="userSpaceOnUse" color-interpolation-filters="sRGB">
<feFlood flood-opacity="0" result="BackgroundImageFix"/>
<feColorMatrix in="SourceAlpha" type="matrix" values="0 0 0 0 0 0 0 0 0 0 0 0 0 0 0 0 0 0 127 0" result="hardAlpha"/>
<feOffset dx="5" dy="4"/>
<feGaussianBlur stdDeviation="2"/>
<feComposite in2="hardAlpha" operator="out"/>
<feColorMatrix type="matrix" values="0 0 0 0 0 0 0 0 0 0 0 0 0 0 0 0 0 0 0.5 0"/>
<feBlend mode="normal" in2="BackgroundImageFix" result="effect1_dropShadow_31_2"/>
<feBlend mode="normal" in="SourceGraphic" in2="effect1_dropShadow_31_2" result="shape"/>
</filter>
<filter id="filter18_d_31_2" x="565" y="854" width="234" height="216" filterUnits="userSpaceOnUse" color-interpolation-filters="sRGB">
<feFlood flood-opacity="0" result="BackgroundImageFix"/>
<feColorMatrix in="SourceAlpha" type="matrix" values="0 0 0 0 0 0 0 0 0 0 0 0 0 0 0 0 0 0 127 0" result="hardAlpha"/>
<feOffset dx="5" dy="4"/>
<feGaussianBlur stdDeviation="2"/>
<feComposite in2="hardAlpha" operator="out"/>
<feColorMatrix type="matrix" values="0 0 0 0 0 0 0 0 0 0 0 0 0 0 0 0 0 0 0.5 0"/>
<feBlend mode="normal" in2="BackgroundImageFix" result="effect1_dropShadow_31_2"/>
<feBlend mode="normal" in="SourceGraphic" in2="effect1_dropShadow_31_2" result="shape"/>
</filter>
<filter id="filter19_d_31_2" x="565" y="1101" width="234" height="216" filterUnits="userSpaceOnUse" color-interpolation-filters="sRGB">
<feFlood flood-opacity="0" result="BackgroundImageFix"/>
<feColorMatrix in="SourceAlpha" type="matrix" values="0 0 0 0 0 0 0 0 0 0 0 0 0 0 0 0 0 0 127 0" result="hardAlpha"/>
<feOffset dx="5" dy="4"/>
<feGaussianBlur stdDeviation="2"/>
<feComposite in2="hardAlpha" operator="out"/>
<feColorMatrix type="matrix" values="0 0 0 0 0 0 0 0 0 0 0 0 0 0 0 0 0 0 0.5 0"/>
<feBlend mode="normal" in2="BackgroundImageFix" result="effect1_dropShadow_31_2"/>
<feBlend mode="normal" in="SourceGraphic" in2="effect1_dropShadow_31_2" result="shape"/>
</filter>
<filter id="filter20_d_31_2" x="606.803" y="395.803" width="147.222" height="167.485" filterUnits="userSpaceOnUse" color-interpolation-filters="sRGB">
<feFlood flood-opacity="0" result="BackgroundImageFix"/>
<feColorMatrix in="SourceAlpha" type="matrix" values="0 0 0 0 0 0 0 0 0 0 0 0 0 0 0 0 0 0 127 0" result="hardAlpha"/>
<feOffset dx="2" dy="4"/>
<feGaussianBlur stdDeviation="2"/>
<feComposite in2="hardAlpha" operator="out"/>
<feColorMatrix type="matrix" values="0 0 0 0 0 0 0 0 0 0 0 0 0 0 0 0 0 0 0.5 0"/>
<feBlend mode="normal" in2="BackgroundImageFix" result="effect1_dropShadow_31_2"/>
<feBlend mode="normal" in="SourceGraphic" in2="effect1_dropShadow_31_2" result="shape"/>
</filter>
<filter id="filter21_d_31_2" x="605.803" y="628.657" width="137.395" height="167.541" filterUnits="userSpaceOnUse" color-interpolation-filters="sRGB">
<feFlood flood-opacity="0" result="BackgroundImageFix"/>
<feColorMatrix in="SourceAlpha" type="matrix" values="0 0 0 0 0 0 0 0 0 0 0 0 0 0 0 0 0 0 127 0" result="hardAlpha"/>
<feOffset dy="4"/>
<feGaussianBlur stdDeviation="2"/>
<feComposite in2="hardAlpha" operator="out"/>
<feColorMatrix type="matrix" values="0 0 0 0 0 0 0 0 0 0 0 0 0 0 0 0 0 0 0.25 0"/>
<feBlend mode="normal" in2="BackgroundImageFix" result="effect1_dropShadow_31_2"/>
<feBlend mode="normal" in="SourceGraphic" in2="effect1_dropShadow_31_2" result="shape"/>
</filter>
<filter id="filter22_d_31_2" x="603.803" y="882.737" width="144.395" height="166.461" filterUnits="userSpaceOnUse" color-interpolation-filters="sRGB">
<feFlood flood-opacity="0" result="BackgroundImageFix"/>
<feColorMatrix in="SourceAlpha" type="matrix" values="0 0 0 0 0 0 0 0 0 0 0 0 0 0 0 0 0 0 127 0" result="hardAlpha"/>
<feOffset dx="5" dy="4"/>
<feGaussianBlur stdDeviation="2"/>
<feComposite in2="hardAlpha" operator="out"/>
<feColorMatrix type="matrix" values="0 0 0 0 0 0 0 0 0 0 0 0 0 0 0 0 0 0 0.5 0"/>
<feBlend mode="normal" in2="BackgroundImageFix" result="effect1_dropShadow_31_2"/>
<feBlend mode="normal" in="SourceGraphic" in2="effect1_dropShadow_31_2" result="shape"/>
</filter>
<filter id="filter23_d_31_2" x="597.8" y="1123.8" width="159.4" height="171.4" filterUnits="userSpaceOnUse" color-interpolation-filters="sRGB">
<feFlood flood-opacity="0" result="BackgroundImageFix"/>
<feColorMatrix in="SourceAlpha" type="matrix" values="0 0 0 0 0 0 0 0 0 0 0 0 0 0 0 0 0 0 127 0" result="hardAlpha"/>
<feOffset dy="4"/>
<feGaussianBlur stdDeviation="2"/>
<feComposite in2="hardAlpha" operator="out"/>
<feColorMatrix type="matrix" values="0 0 0 0 0 0 0 0 0 0 0 0 0 0 0 0 0 0 0.25 0"/>
<feBlend mode="normal" in2="BackgroundImageFix" result="effect1_dropShadow_31_2"/>
<feBlend mode="normal" in="SourceGraphic" in2="effect1_dropShadow_31_2" result="shape"/>
</filter>
</defs>
</svg>
